<svg width="200" height="45" viewBox="0 0 200 45" fill="none" xmlns="http://www.w3.org/2000/svg">
<g clip-path="url(#clip0_14_850)">
<path d="M30.5455 25.2223L22.7638 20.9613C21.3489 23.6244 18.9694 25.3554 15.4966 25.3554C11.6379 25.3554 8.93679 21.8934 9.12973 17.7655C9.38696 12.8387 12.6668 9.31009 17.7475 9.31009C20.2557 9.31009 22.8924 10.4419 23.5998 12.8387L32.2176 10.0424C31.06 4.25015 25.272 0.322021 18.262 0.322021C8.74384 0.322021 1.02646 7.57904 0.190402 16.9C-0.902898 26.9533 5.46396 34.3435 14.9821 34.3435C21.9277 34.3435 28.1017 30.7483 30.5455 25.2223Z" fill="url(#paint0_linear_14_850)"/>
<path d="M50.4846 0.322021C40.3232 0.322021 32.0272 9.1769 32.0272 19.6297C32.0272 28.1517 38.0725 34.3435 46.7544 34.3435C56.8515 34.3435 65.2121 25.4886 65.2121 15.169C65.2121 6.58036 59.1669 0.322021 50.4846 0.322021ZM49.777 9.31009C53.4429 9.31009 56.2082 12.3061 56.2082 16.2342C56.2082 21.2276 52.2211 25.3554 47.462 25.3554C43.7318 25.3554 41.0309 22.3594 41.0309 18.5644C41.0309 13.5045 44.954 9.31009 49.777 9.31009Z" fill="url(#paint1_linear_14_850)"/>
<path d="M88.1898 0.322021C84.9743 0.322021 81.437 1.78674 79.1863 4.51645L79.8292 0.987801H70.7614L62.5294 44.53H71.6616L74.4273 29.8827C76.292 32.8788 79.7006 34.3435 83.3665 34.3435C93.1419 34.3435 100.795 25.6217 100.795 14.5698C100.795 6.38066 95.4569 0.322021 88.1898 0.322021ZM82.016 25.4886C79.3789 25.4886 76.9996 24.3568 75.8421 22.2928L77.5785 12.8387C79.3146 10.7082 82.2089 9.17694 84.9743 9.17694C89.0257 9.17694 91.4698 11.9066 91.4698 16.0345C91.4698 21.3607 87.4822 25.4886 82.016 25.4886Z" fill="url(#paint2_linear_14_850)"/>
<path d="M123.74 0.322021C120.524 0.322021 116.987 1.78674 114.736 4.51645L115.379 0.987801H106.311L98.0791 44.53H107.211L109.977 29.8827C111.842 32.8788 115.25 34.3435 118.916 34.3435C128.692 34.3435 136.345 25.6217 136.345 14.5698C136.345 6.38066 131.007 0.322021 123.74 0.322021ZM117.566 25.4886C114.929 25.4886 112.549 24.3568 111.392 22.2928L113.128 12.8387C114.865 10.7082 117.759 9.17694 120.524 9.17694C124.576 9.17694 127.019 11.9066 127.019 16.0345C127.019 21.3607 123.032 25.4886 117.566 25.4886Z" fill="url(#paint3_linear_14_850)"/>
<path d="M169.325 14.0371C169.325 6.18091 163.601 0.322021 155.112 0.322021C145.658 0.322021 137.234 9.04375 137.234 19.43C137.234 28.0186 143.343 34.3435 152.025 34.3435C158.264 34.3435 163.794 32.0798 166.688 27.7522L160 22.7589C158.713 24.9559 155.819 26.3541 152.733 26.3541C148.81 26.3541 146.43 23.6244 146.044 19.6963H168.36C168.875 18.165 169.325 15.7682 169.325 14.0371ZM146.88 13.3714C148.102 10.109 150.739 7.91193 154.598 7.91193C158.199 7.91193 160.514 9.84269 160.643 13.3714H146.88Z" fill="url(#paint4_linear_14_850)"/>
<path d="M190.664 0.322021C188.413 0.322021 185.004 1.72017 182.947 4.31671L183.589 0.987801H174.522L168.348 33.6777H177.416L181.21 13.5045L181.081 14.4366C183.14 11.0411 187.127 8.9772 189.571 8.9772C190.6 8.9772 192.079 9.17694 193.108 9.57639L194.715 0.987801C193.815 0.654913 192.593 0.322021 190.664 0.322021Z" fill="url(#paint5_linear_14_850)"/>
<path d="M193.826 34.3435C197.106 34.3435 199.679 31.6803 199.679 28.3514C199.679 25.0225 197.106 22.426 193.826 22.426C190.482 22.426 187.974 25.0225 187.974 28.3514C187.974 31.6803 190.482 34.3435 193.826 34.3435Z" fill="url(#paint6_linear_14_850)"/>
</g>
<defs>
<linearGradient id="paint0_linear_14_850" x1="-10.1904" y1="-3.31374" x2="141.752" y2="55.9628" gradientUnits="userSpaceOnUse">
<stop stop-color="#53B0EE"/>
<stop offset="0.464264" stop-color="#644ACC"/>
<stop offset="0.704085" stop-color="#9250A6"/>
<stop offset="1" stop-color="#E15967"/>
</linearGradient>
<linearGradient id="paint1_linear_14_850" x1="-10.1904" y1="-3.31374" x2="141.752" y2="55.9628" gradientUnits="userSpaceOnUse">
<stop stop-color="#53B0EE"/>
<stop offset="0.464264" stop-color="#644ACC"/>
<stop offset="0.704085" stop-color="#9250A6"/>
<stop offset="1" stop-color="#E15967"/>
</linearGradient>
<linearGradient id="paint2_linear_14_850" x1="-10.1904" y1="-3.31374" x2="141.752" y2="55.9628" gradientUnits="userSpaceOnUse">
<stop stop-color="#53B0EE"/>
<stop offset="0.464264" stop-color="#644ACC"/>
<stop offset="0.704085" stop-color="#9250A6"/>
<stop offset="1" stop-color="#E15967"/>
</linearGradient>
<linearGradient id="paint3_linear_14_850" x1="-10.1904" y1="-3.31374" x2="141.752" y2="55.9628" gradientUnits="userSpaceOnUse">
<stop stop-color="#53B0EE"/>
<stop offset="0.464264" stop-color="#644ACC"/>
<stop offset="0.704085" stop-color="#9250A6"/>
<stop offset="1" stop-color="#E15967"/>
</linearGradient>
<linearGradient id="paint4_linear_14_850" x1="-10.1904" y1="-3.31374" x2="141.752" y2="55.9628" gradientUnits="userSpaceOnUse">
<stop stop-color="#53B0EE"/>
<stop offset="0.464264" stop-color="#644ACC"/>
<stop offset="0.704085" stop-color="#9250A6"/>
<stop offset="1" stop-color="#E15967"/>
</linearGradient>
<linearGradient id="paint5_linear_14_850" x1="-10.1904" y1="-3.31374" x2="141.752" y2="55.9628" gradientUnits="userSpaceOnUse">
<stop stop-color="#53B0EE"/>
<stop offset="0.464264" stop-color="#644ACC"/>
<stop offset="0.704085" stop-color="#9250A6"/>
<stop offset="1" stop-color="#E15967"/>
</linearGradient>
<linearGradient id="paint6_linear_14_850" x1="-10.1905" y1="-3.31378" x2="141.752" y2="55.9628" gradientUnits="userSpaceOnUse">
<stop stop-color="#53B0EE"/>
<stop offset="0.464264" stop-color="#644ACC"/>
<stop offset="0.704085" stop-color="#9250A6"/>
<stop offset="1" stop-color="#E15967"/>
</linearGradient>
<clipPath id="clip0_14_850">
<rect width="200" height="44.8" fill="white"/>
</clipPath>
</defs>
</svg>
